<svg id="visual" viewBox="0 0 1345 300" width="1345" height="300" xmlns="http://www.w3.org/2000/svg" xmlns:xlink="http://www.w3.org/1999/xlink" version="1.1"><rect x="0" y="0" width="1345" height="300" fill="#FFFFFF"></rect><path d="M991 300L1003 287.5C1015 275 1039 250 1032.8 225C1026.7 200 990.3 175 973.5 150C956.7 125 959.3 100 980.7 75C1002 50 1042 25 1062 12.5L1082 0L1345 0L1345 12.5C1345 25 1345 50 1345 75C1345 100 1345 125 1345 150C1345 175 1345 200 1345 225C1345 250 1345 275 1345 287.5L1345 300Z" fill="#bea8d8" stroke-linecap="round" stroke-linejoin="miter"></path></svg>